Coordinates
version=1
nRows=10
nColumns=34
inDegrees=yes

Units are S.I. units (second, meters, Newtons, ...)
If the header above contains a line with 'inDegrees', this indicates whether rotational values are in degrees (yes) or radians (no).

endheader
time	pelvis_tilt	pelvis_list	pelvis_rotation	pelvis_tx	pelvis_ty	pelvis_tz	hip_flexion_r	hip_adduction_r	hip_rotation_r	knee_angle_r	ankle_angle_r	subtalar_angle_r	mtp_angle_r	hip_flexion_l	hip_adduction_l	hip_rotation_l	knee_angle_l	ankle_angle_l	subtalar_angle_l	mtp_angle_l	lumbar_extension	lumbar_bending	lumbar_rotation	arm_flex_r	arm_add_r	arm_rot_r	elbow_flex_r	pro_sup_r	arm_flex_l	arm_add_l	arm_rot_l	elbow_flex_l	pro_sup_l
      0.00000000	     -5.37771509	     -5.22916497	    -61.57052790	      0.13118642	      0.99638228	     -0.11566890	     -9.63812085	     -2.67355601	      7.23633107	     12.99155301	     14.67257950	      5.48767762	      0.00000000	    -11.26043686	     -8.57083235	     -4.91743628	      6.88776652	     12.12519798	     -0.40966689	      0.00000000	    -12.87003135	      4.23288905	     -0.47132471	     10.44721811	     -2.46327915	     -3.04280305	     26.14669516	    116.81092371	     13.25461210	     -3.24313790	     22.70631450	     19.54846082	     94.21497155
      0.01666670	     -5.38141949	     -5.22457190	    -61.58028043	      0.13126660	      0.99640561	     -0.11561827	     -9.63660589	     -2.69092205	      7.23724457	     12.98900798	     14.67029470	      5.48963499	      0.00000000	    -11.26502853	     -8.58214978	     -4.91717437	      6.88617410	     12.12399888	     -0.40666468	      0.00000000	    -12.87242758	      4.24134625	     -0.48070550	     10.44022299	     -2.45809099	     -3.04334907	     26.14686771	    116.80954706	     13.26585532	     -3.24307110	     22.70805400	     19.55339063	     94.21819314
      0.03333330	     -5.41824756	     -5.18734376	    -61.62394127	      0.13119048	      0.99646147	     -0.11619625	     -9.61919819	     -2.70479520	      7.19921640	     12.81523393	     14.64502296	      5.53093119	      0.00000000	    -11.23883571	     -8.56092694	     -4.97793136	      6.74886031	     12.08282034	     -0.35443047	      0.00000000	    -12.90425152	      4.30200643	     -0.51387404	     10.61565078	     -2.45043077	     -3.06563807	     26.20135289	    116.78215870	     13.33173675	     -3.20011213	     22.76294860	     19.59959091	     94.28476256
      0.05000000	     -5.41747620	     -5.18885564	    -61.62438760	      0.13129644	      0.99648640	     -0.11619251	     -9.61965956	     -2.70618128	      7.19916842	     12.81478842	     14.64482963	      5.53112931	      0.00000000	    -11.23697751	     -8.56320172	     -4.97808230	      6.74708628	     12.08251770	     -0.35414452	      0.00000000	    -12.90411635	      4.30171622	     -0.51314227	     10.61651044	     -2.44966829	     -3.06552326	     26.20143899	    116.78207151	     13.33148401	     -3.20025039	     22.76319994	     19.59962986	     94.28507401
      0.06666670	     -5.51195426	     -5.39781479	    -61.61099280	      0.13168637	      0.99684636	     -0.11554949	    -10.16142299	     -2.55809622	      7.02344441	     12.10615196	     14.25992935	      5.91824776	      0.00000000	    -11.84355848	     -8.73290479	     -5.33673453	      5.92442865	     11.54152270	      0.15556470	      0.00000000	    -12.93528228	      4.53839545	     -0.50931717	     10.90916657	     -2.40414137	     -2.94332336	     25.52004189	    116.64796528	     13.22008196	     -3.20764289	     23.23674472	     19.65465741	     94.81017460
      0.08333330	     -5.50950333	     -5.39951713	    -61.61089686	      0.13171631	      0.99680246	     -0.11551735	    -10.16028067	     -2.55733921	      7.02316156	     12.10485266	     14.26027107	      5.91811466	      0.00000000	    -11.84306265	     -8.73411328	     -5.33680699	      5.92332636	     11.54199150	      0.15554535	      0.00000000	    -12.93536757	      4.53730516	     -0.50865794	     10.91084971	     -2.40431378	     -2.94311088	     25.52052760	    116.64793005	     13.21982382	     -3.20707076	     23.23707073	     19.65476441	     94.81047914
      0.10000000	     -5.45184119	     -5.73624017	    -61.62442825	      0.13201725	      0.99714546	     -0.11484010	    -10.84565166	     -2.48093762	      6.84333564	     11.52420448	     14.25793599	      6.09543750	      0.00000000	    -12.79751608	     -8.79132033	     -5.37164748	      4.89556353	     11.61485207	      0.62713561	      0.00000000	    -13.17447040	      4.61188331	     -0.31538524	     11.11265806	     -2.54972813	     -2.26638768	     25.05775648	    116.62367435	     13.16440189	     -3.24247419	     23.86181729	     19.99981882	     95.46595958
      0.11666670	     -5.45736430	     -5.74567174	    -61.61007142	      0.13196104	      0.99712923	     -0.11498100	    -10.85174588	     -2.47734583	      6.83769905	     11.50114379	     14.24976803	      6.10394185	      0.00000000	    -12.79639860	     -8.80139796	     -5.39023140	      4.87268774	     11.59922802	      0.62790532	      0.00000000	    -13.16668432	      4.59452597	     -0.30330011	     11.19439298	     -2.49658944	     -2.23897688	     25.09800984	    116.62494996	     13.17666847	     -3.19409257	     23.88282419	     20.02214995	     95.48364971
      0.13333330	     -5.45842035	     -5.75084151	    -61.60929963	      0.13192126	      0.99703887	     -0.11499468	    -10.85049708	     -2.47984843	      6.83778181	     11.50025227	     14.24960720	      6.10409549	      0.00000000	    -12.79460638	     -8.80168631	     -5.39065027	      4.87070901	     11.59899304	      0.62798077	      0.00000000	    -13.16663127	      4.59456203	     -0.30333900	     11.19535148	     -2.49604419	     -2.23836491	     25.09835884	    116.62499011	     13.17758940	     -3.19330614	     23.88336974	     20.02325415	     95.48409463
      0.15000000	     -5.53522825	     -6.01181424	    -61.62889470	      0.13115168	      0.99742338	     -0.11645422	    -10.77216583	     -2.29304915	      6.59273463	     11.81728567	     14.03246840	      6.21314697	      0.00000000	    -13.02821204	     -8.99746275	     -5.40917736	      4.63036538	     11.38715329	      0.77501059	      0.00000000	    -13.73865769	      4.83152216	     -0.12248035	     11.65161068	     -2.60298309	     -1.61294818	     25.09755669	    116.67933148	     13.38980018	     -3.30518642	     24.47158750	     20.83220795	     95.95620001
